<svg xmlns="http://www.w3.org/2000/svg" width="32" height="32" viewBox="0 0 32 32">
  <defs>
    <linearGradient id="nestGradient" x1="0%" y1="0%" x2="100%" y2="100%">
      <stop offset="0%" style="stop-color:#0284c7" />
      <stop offset="100%" style="stop-color:#0ea5e9" />
    </linearGradient>
  </defs>
  <path fill="url(#nestGradient)" d="M16 2C8.3 2 2 8.3 2 16s6.3 14 14 14 14-6.3 14-14S23.7 2 16 2zm0 4c5.5 0 10 4.5 10 10s-4.5 10-10 10S6 21.5 6 16 10.5 6 16 6zm0 4c-3.3 0-6 2.7-6 6s2.7 6 6 6 6-2.7 6-6-2.7-6-6-6z"/>
</svg>
